<svg width="48" height="48" viewBox="0 0 48 48" fill="none" xmlns="http://www.w3.org/2000/svg">
<rect x="4" y="7" width="40" height="36" fill="#FBF5E5"/>
<path d="M41.979 48H6.0141C4.35947 48 2.94679 47.4141 1.77606 46.2422C0.605324 45.0703 0.0199585 43.6562 0.0199585 42V6C0.0199585 4.34375 0.605324 2.92969 1.77606 1.75781C2.94679 0.585938 4.35947 0 6.0141 0H41.979C43.6336 0 45.0463 0.585938 46.217 1.75781C47.3878 2.92969 47.9731 4.34375 47.9731 6V42C47.9731 43.6562 47.3878 45.0703 46.217 46.2422C45.0463 47.4141 43.6336 48 41.979 48ZM38.4668 27.8906C36.5312 27.2969 34.2053 27 31.4892 27C30.7087 27 29.8346 27.1406 28.8668 27.4219C29.4912 30.8281 29.8658 34.2656 29.9907 37.7344C32.0512 36.8281 33.8229 35.5156 35.3058 33.7969C36.7887 32.0781 37.8424 30.1094 38.4668 27.8906ZM26.9468 38.7188C26.8531 35.5625 26.4785 32.25 25.8229 28.7812C25.2297 29.1562 24.6209 29.5625 23.9965 30C22.3419 31.1875 21.0385 32.3906 20.0863 33.6094C19.1341 34.8281 18.5019 36.2344 18.1897 37.8281C20.0317 38.6094 21.9673 39 23.9965 39C24.9956 39 25.979 38.9062 26.9468 38.7188ZM9.01118 24C9.01118 26.4688 9.57313 28.7734 10.697 30.9141C11.8209 33.0547 13.3507 34.8125 15.2863 36.1875C16.4726 32.5625 18.5643 29.6875 21.5614 27.5625C22.7478 26.7188 23.9341 26.0312 25.1204 25.5C24.8395 24.3125 24.5429 23.2812 24.2307 22.4062C21.8892 23.5 19.4697 24.0312 16.9722 24C14.2248 23.9688 11.6024 23.4375 9.10484 22.4062C9.0424 22.9688 9.01118 23.5 9.01118 24ZM9.76045 19.3125C12.1956 20.4375 14.4434 21 16.5039 21C18.4395 21 20.5936 20.4688 22.9663 19.4062C21.2804 15.9375 18.8297 13.3438 15.6141 11.625C12.7731 13.5312 10.8219 16.0938 9.76045 19.3125ZM23.9965 9C22.217 9 20.4375 9.34375 18.658 10.0312C21.8736 11.7188 24.2931 14.2656 25.9165 17.6719C28.7575 15.6094 30.5058 13.3281 31.1614 10.8281C28.9448 9.60938 26.5565 9 23.9965 9ZM33.5965 12.4688C32.379 15.8125 30.3497 18.4844 27.5087 20.4844C27.4775 20.5156 27.337 20.6094 27.0873 20.7656C27.4619 21.8281 27.8365 23.0469 28.2112 24.4219C29.5224 24.1406 30.8336 24 32.1448 24C34.3926 24.0312 36.6404 24.4219 38.8882 25.1719C38.9507 24.4531 38.9819 24.0625 38.9819 24C38.9819 21.7188 38.5058 19.5781 37.5536 17.5781C36.6014 15.5781 35.2824 13.875 33.5965 12.4688Z" fill="#31312D"/>
</svg>
