<svg width="48" height="48" viewBox="0 0 48 48" fill="none" xmlns="http://www.w3.org/2000/svg">
<rect x="4" y="6" width="40" height="42" fill="#FBF5E5"/>
<path d="M4.77778 0.333336H42.6667C44 0.333336 45.1296 0.796299 46.0556 1.72222C46.9815 2.64815 47.4444 3.74074 47.4444 5V43C47.4444 44.2593 46.9815 45.3519 46.0556 46.2778C45.1296 47.2037 44 47.6667 42.6667 47.6667H30.4444C29.9259 47.5926 29.6667 46.8148 29.6667 45.3333V38.8889C29.6667 36.8889 29.1111 35.4074 28 34.4444C31.2593 34.0741 33.8704 33.0741 35.8333 31.4444C37.7963 29.8148 38.7778 26.9259 38.7778 22.7778C38.7778 20.3333 37.963 18.2222 36.3333 16.4444C37.1481 14.5185 37.0741 12.4074 36.1111 10.1111C34.7778 9.66667 32.6296 10.4815 29.6667 12.5556C27.7407 12.037 25.7407 11.7778 23.6667 11.7778C21.5926 11.7778 19.6296 12.037 17.7778 12.5556C16.4444 11.6667 15.2407 11.0185 14.1667 10.6111C13.0926 10.2037 12.3333 10.037 11.8889 10.1111H11.2222C10.3333 12.4074 10.2593 14.5185 11 16.4444C9.37037 18.2222 8.55556 20.3333 8.55556 22.7778C8.55556 26.8519 9.55556 29.7222 11.5556 31.3889C13.5556 33.0556 16.1481 34.0741 19.3333 34.4444C18.5185 35.1852 18.037 36.2593 17.8889 37.6667C14.7778 39 12.4815 38.3333 11 35.6667C10.1111 34.1852 8.88889 33.3704 7.33333 33.2222C7.18518 33.2222 7.01852 33.2407 6.83333 33.2778C6.64815 33.3148 6.44444 33.4444 6.22222 33.6667C6 33.8889 6.2963 34.2222 7.11111 34.6667C8.22222 35.1852 9.11111 36.3333 9.77778 38.1111C9.85185 38.2593 9.92593 38.4259 10 38.6111C10.0741 38.7963 10.3148 39.1481 10.7222 39.6667C11.1296 40.1852 11.6111 40.5741 12.1667 40.8333C12.7222 41.0926 13.4815 41.3333 14.4444 41.5556C15.4074 41.7778 16.5185 41.7037 17.7778 41.3333V45.3333C17.7778 46.8148 17.4815 47.5926 16.8889 47.6667H4.77778C3.44444 47.6667 2.31481 47.2037 1.38889 46.2778C0.462963 45.3519 0 44.2593 0 43V5C0 3.74074 0.462963 2.64815 1.38889 1.72222C2.31481 0.796299 3.44444 0.333336 4.77778 0.333336Z" fill="#31312D"/>
</svg>
