<svg width="40" height="40" viewBox="0 0 40 40" fill="none" xmlns="http://www.w3.org/2000/svg">
<path d="M31.25 27.5H16.25C15.2148 27.5 14.3311 27.1338 13.5986 26.4014C12.8662 25.6689 12.5 24.7852 12.5 23.75V8.75C12.5 7.71484 12.8662 6.83105 13.5986 6.09863C14.3311 5.36621 15.2148 5 16.25 5H31.25C32.2852 5 33.1689 5.36621 33.9014 6.09863C34.6338 6.83105 35 7.71484 35 8.75V23.75C35 24.7852 34.6338 25.6689 33.9014 26.4014C33.1689 27.1338 32.2852 27.5 31.25 27.5ZM31.25 10.625C31.25 10.0977 31.0693 9.65332 30.708 9.29199C30.3467 8.93066 29.9023 8.75 29.375 8.75H18.125C17.5977 8.75 17.1533 8.93066 16.792 9.29199C16.4307 9.65332 16.25 10.0928 16.25 10.6104C16.25 11.1279 16.4307 11.5723 16.792 11.9434C17.1533 12.3145 17.5977 12.5 18.125 12.5H24.9219L16.748 20.6738C16.3965 21.0254 16.2207 21.4502 16.2207 21.9482C16.2207 22.4463 16.3965 22.8711 16.748 23.2227C17.0996 23.5742 17.5244 23.75 18.0225 23.75C18.5205 23.75 18.9453 23.5742 19.2969 23.2227L27.5 15.0195V21.875C27.5 22.4023 27.6855 22.8467 28.0566 23.208C28.4277 23.5693 28.8721 23.75 29.3896 23.75C29.9072 23.75 30.3467 23.5693 30.708 23.208C31.0693 22.8467 31.25 22.4023 31.25 21.875V10.625ZM29.375 33.1396C29.375 33.6572 29.1943 34.0967 28.833 34.458C28.4717 34.8193 28.0273 35 27.5 35H8.75C7.71484 35 6.83105 34.6338 6.09863 33.9014C5.36621 33.1689 5 32.2852 5 31.25V12.5C5 11.9727 5.18066 11.5283 5.54199 11.167C5.90332 10.8057 6.34277 10.625 6.86035 10.625C7.37793 10.625 7.82227 10.8057 8.19336 11.167C8.56445 11.5283 8.75 11.9727 8.75 12.5V29.375C8.75 29.9023 8.93066 30.3467 9.29199 30.708C9.65332 31.0693 10.0977 31.25 10.625 31.25H27.5C28.0078 31.25 28.4473 31.4355 28.8184 31.8066C29.1895 32.1777 29.375 32.6221 29.375 33.1396Z" fill="#32312D"/>
</svg>
