<svg width="41" height="57" viewBox="0 0 41 57" fill="none" xmlns="http://www.w3.org/2000/svg">
<path d="M30.75 21.375C30.3509 21.3739 29.9641 21.5672 29.6567 21.9212L20.5 32.5612L11.3263 22.3012C11.1515 22.1039 10.9505 21.9566 10.7347 21.8677C10.5188 21.7788 10.2925 21.7501 10.0686 21.7832C9.8448 21.8163 9.62788 21.9106 9.43033 22.0606C9.23278 22.2107 9.05852 22.4135 8.91754 22.6575C8.77563 22.9004 8.66966 23.1799 8.60572 23.48C8.54177 23.78 8.52111 24.0947 8.54493 24.4059C8.56874 24.7171 8.63655 25.0187 8.74448 25.2933C8.8524 25.568 8.9983 25.8102 9.17379 26.0062L19.4238 37.4775C19.7295 37.8268 20.1129 38.0178 20.5086 38.0178C20.9043 38.0178 21.2877 37.8268 21.5934 37.4775L31.8434 25.6025C32.0164 25.4031 32.1594 25.1582 32.2642 24.8819C32.369 24.6056 32.4335 24.3032 32.4542 23.9922C32.4748 23.6811 32.4511 23.3674 32.3844 23.0691C32.3177 22.7708 32.2093 22.4937 32.0655 22.2537C31.9065 21.9813 31.7061 21.7612 31.4786 21.6092C31.2512 21.4573 31.0024 21.3773 30.75 21.375Z" fill="#32312D"/>
</svg>
