<svg width="41" height="58" viewBox="0 0 41 58" fill="none" xmlns="http://www.w3.org/2000/svg">
<path d="M30.75 36.25C30.3509 36.2511 29.9641 36.0545 29.6567 35.6942L20.5 24.8675L11.3263 35.3075C11.1515 35.5083 10.9505 35.6582 10.7347 35.7486C10.5188 35.8391 10.2925 35.8683 10.0686 35.8346C9.8448 35.8009 9.62788 35.705 9.43033 35.5523C9.23278 35.3997 9.05852 35.1933 8.91754 34.945C8.77563 34.6978 8.66966 34.4134 8.60572 34.1081C8.54177 33.8027 8.52111 33.4826 8.54493 33.1659C8.56874 32.8493 8.63655 32.5424 8.74448 32.2629C8.8524 31.9835 8.9983 31.7369 9.17379 31.5375L19.4238 19.865C19.7295 19.5096 20.1129 19.3153 20.5086 19.3153C20.9043 19.3153 21.2877 19.5096 21.5934 19.865L31.8434 31.9483C32.0164 32.1512 32.1594 32.4004 32.2642 32.6816C32.369 32.9627 32.4335 33.2704 32.4542 33.5869C32.4748 33.9034 32.4511 34.2226 32.3844 34.5262C32.3177 34.8297 32.2093 35.1116 32.0655 35.3558C31.9065 35.6331 31.7061 35.857 31.4786 36.0116C31.2512 36.1662 31.0024 36.2477 30.75 36.25Z" fill="#32312D"/>
</svg>
