<svg width="40" height="40" viewBox="0 0 40 40" fill="none" xmlns="http://www.w3.org/2000/svg">
<path d="M13.125 35C10.9701 35 8.90349 34.144 7.37976 32.6202C5.85602 31.0965 5 29.0299 5 26.875L5 13.125C5 12.058 5.21016 11.0015 5.61848 10.0157C6.0268 9.02993 6.62528 8.13423 7.37976 7.37976C8.13423 6.62528 9.02993 6.0268 10.0157 5.61848C11.0015 5.21016 12.058 5 13.125 5L18.125 5C18.6223 5 19.0992 5.19754 19.4508 5.54918C19.8025 5.90081 20 6.37772 20 6.875C20 7.37228 19.8025 7.84919 19.4508 8.20082C19.0992 8.55245 18.6223 8.75 18.125 8.75L13.125 8.75C11.9647 8.75 10.8519 9.21093 10.0314 10.0314C9.21094 10.8519 8.75 11.9647 8.75 13.125L8.75 26.875C8.75 28.0353 9.21094 29.1481 10.0314 29.9686C10.8519 30.7891 11.9647 31.25 13.125 31.25L26.875 31.25C29.29 31.25 31.25 29.29 31.25 26.875L31.25 19.375C31.25 18.8777 31.4475 18.4008 31.7992 18.0492C32.1508 17.6975 32.6277 17.5 33.125 17.5C33.6223 17.5 34.0992 17.6975 34.4508 18.0492C34.8025 18.4008 35 18.8777 35 19.375L35 26.875C35 29.0299 34.144 31.0965 32.6202 32.6202C31.0965 34.144 29.0299 35 26.875 35L13.125 35Z" fill="#32312D"/>
<path d="M16.875 25C16.3777 25 15.9008 24.8025 15.5492 24.4508C15.1975 24.0992 15 23.6223 15 23.125L15 14.375C15 13.8777 15.1975 13.4008 15.5492 13.0492C15.9008 12.6975 16.3777 12.5 16.875 12.5C17.3723 12.5 17.8492 12.6975 18.2008 13.0492C18.5525 13.4008 18.75 13.8777 18.75 14.375L18.75 18.6L29.3 8.05C29.4717 7.86578 29.6787 7.71803 29.9087 7.61555C30.1387 7.51307 30.3869 7.45796 30.6387 7.45352C30.8905 7.44908 31.1405 7.49539 31.374 7.58969C31.6075 7.68399 31.8195 7.82436 31.9976 8.0024C32.1756 8.18045 32.316 8.39253 32.4103 8.626C32.5046 8.85948 32.5509 9.10955 32.5465 9.3613C32.542 9.61306 32.4869 9.86135 32.3845 10.0913C32.282 10.3213 32.1342 10.5283 31.95 10.7L21.4 21.25L25.625 21.25C26.1223 21.25 26.5992 21.4475 26.9508 21.7992C27.3025 22.1508 27.5 22.6277 27.5 23.125C27.5 23.6223 27.3025 24.0992 26.9508 24.4508C26.5992 24.8025 26.1223 25 25.625 25L16.875 25Z" fill="#32312D"/>
</svg>
